<svg id="Capa_1" data-name="Capa 1" xmlns="http://www.w3.org/2000/svg" xmlns:xlink="http://www.w3.org/1999/xlink" viewBox="0 0 533.2 222.93"><defs><clipPath id="clip-path"><path d="M12.92,2.84Q7.58,4.36,5.84,8.45-7.76,39.39,20.6,50q12.51,6,11.13,10.72-1.38,6.2-8.92,6.3-5.7-.89-6.53-7.22a67,67,0,0,1-.51-6.76L3.82,53.6q-1.2,12.78.23,19.59Q6.75,84,20.83,84q13.7-1.25,21.24-6.85,4.18-2.81,4-18.85Q45.66,44.92,22.12,34.1,13.57,31,14.9,22.52a4.12,4.12,0,0,1,2.85-3.22q1.42-1,6.94-1,5,0,6.3,2.44,3,5.39-1.1,12.18l12.83,1.66A32.89,32.89,0,0,0,45.89,21,27.17,27.17,0,0,0,41.2,5.32q-2.34-3.49-14.3-4a51.34,51.34,0,0,0-14,1.52" fill="none"/></clipPath><clipPath id="clip-path-2"><path d="M49.25,69.33q1.52,10.62,8.82,12.32,14.71,3.63,22.81,1.93,13.52-3.49,14-15.13,1.23-26.89-2.4-62.16L76.84,8.4q4.77,38,2.34,53.06-.92,5.25-5.15,6.16a8.57,8.57,0,0,1-5.84-.41q-3.12-1.29-3.86-7.36-1.34-13.43,2.3-56l-16-1.2q-3.81,47.09-1.42,66.68" fill="none"/></clipPath><clipPath id="clip-path-3"><path d="M116.47,23.05q7.5.28,10.9,2.21,3.16,1.38,2.39,7.41-.82,11.27-5.56,12.5l-7.73,2.48ZM99.09,6.73l2.71,81.62,14.58,2.44V61.54l16.05-5.7q6.48-1.8,8.27-8.92,3.27-9.37,2.81-30.35-.69-8.73-24-9.84Z" fill="none"/></clipPath><clipPath id="clip-path-4"><polygon points="149.25 80.54 188.43 77.79 188.84 63.12 163.05 63.12 163.05 47.02 181.99 46.43 181.99 31.8 163.05 30.61 163.05 21.73 188.98 20.45 189.99 6.05 147 4.31 149.25 80.54" fill="none"/></clipPath><clipPath id="clip-path-5"><path d="M212.2,16.17q7.45,0,10.85,1.89,3.18,1.34,2.35,8-.6,11.31-13.2,12.32ZM194.78.86l2.71,81.8,14.62,1.24v-29l25.38,36.59,13.26-11L227.1,50.24l1-.23q6.48-1.38,8.23-8.41,3.25-9.15,2.8-30.12Q238.56,0,211.54,0q-7.38,0-16.76.86" fill="none"/></clipPath><clipPath id="clip-path-6"><path d="M420.31,158.88s-.9,66,18.92,64c4.73-.47,15.39-4.09,15.39-4.09s9.39-9.7-20.69-65.13c0,0-13,8.08-13.62,5.21" fill="none"/></clipPath><clipPath id="clip-path-7"><path d="M440.27,163.42l-20,4.64a4.66,4.66,0,0,0,2.11,9.07l20-4.64a4.66,4.66,0,0,0-1.05-9.2,4.33,4.33,0,0,0-1.06.13" fill="none"/></clipPath><clipPath id="clip-path-8"><path d="M18.38,98q-15,4.33-17.3,17.11-3.27,20.65,3.38,53.2,3.87,14.3,19.36,17,5.57,1.68,15.73.58,11.78-1.51,24.46-15.8L50.55,157.28q-9.94,9.32-15.9,10.51-9.21,1.86-11.14-5.09-4.34-23.49-2.45-38.48,1.07-6.73,5.23-8.23a15.16,15.16,0,0,1,8.37-1.2c3.63.16,5.78,1.9,6.47,5.2.35,2,.61,4,.79,6.08l18.92-1.78q.31-7.11.1-13-.4-12.82-16.41-15.55a51.37,51.37,0,0,0-7.62-.56A67.2,67.2,0,0,0,18.38,98" fill="none"/></clipPath><clipPath id="clip-path-9"><path d="M68,171.8q2.14,11.79,12.31,13.67,20.49,4,31.73,2.07,18.8-3.91,19.47-16.86,1.66-29.9-3.48-69.08L106.27,104q6.75,42.21,3.39,59a8.22,8.22,0,0,1-7.15,6.87,14.86,14.86,0,0,1-8.12-.45c-2.9-.94-4.7-3.67-5.39-8.16-1.26-9.94-.28-35.34,3-66.9L69.82,93c-3.46,34.9-4,64.25-1.78,78.76" fill="none"/></clipPath><clipPath id="clip-path-10"><path d="M161.49,111q10.35-.08,15.09,2.07,4.42,1.47,3.29,8.88-.81,12.57-18.33,13.74ZM137.21,94l4,90.91,20.35,1.33L161.45,154l28,33.88,13.09-10.46-20.28-28.62,1.35-.27q9-1.54,11.42-9.37,4.53-10.18,3.83-33.49Q198.11,93,161,93q-10.45,0-23.8,1" fill="none"/></clipPath><clipPath id="clip-path-11"><path d="M205.51,119.62l4.05,67.46,18.22-4.14-.15-65.41Zm1.84-7.92,18.23.62,1.67-22.85-22.13-.66Z" fill="none"/></clipPath><clipPath id="clip-path-12"><path d="M259.78,164.58q-1.27-1.89-4.19-16.35-4.92-29.37-1.29-32.24,5.49-4.56,16.94-3.72,8.83.95,10.32,7a67,67,0,0,1,.85,11.81q0,18.54-4.92,31.43a7.49,7.49,0,0,1-3.95,3.64,35.3,35.3,0,0,1-6.33,1h-.27q-5.4,0-7.16-2.64m14.68-72.2q-24.56,1.4-36.18,7.65-6.45,3.18-6.16,18.67,0,14.29,5.71,40.1,4.53,19.72,7.79,22.93,4.56,4.7,18.56,4.45,11.7-.74,16.12-1.77,6.7-1.95,9.83-6.25,12.56-22,12.48-53.54,0-12.72-2.22-20.23-4.17-12-25.75-12h-.18" fill="none"/></clipPath><clipPath id="clip-path-13"><path d="M414.45,146.29q-2.07-1.72-8.49-16.45-11.68-30.14-7.19-34,6.74-6,22.56-7.64,12.24-.9,15.3,5.23a56.52,56.52,0,0,1,3.16,12.36q3.18,19.69-1.44,34.47a10,10,0,0,1-4.8,4.72,61.37,61.37,0,0,1-8.49,2.48,29.15,29.15,0,0,1-4.7.44q-4,0-5.91-1.63m7.93-79.89q-33.37,6.81-48.23,16-8.31,4.78-5.29,21.17,2.44,15.19,14.58,41.36,9.49,20,14.52,22.67,7,4,26.15.7,15.9-3.34,21.75-5.39,8.86-3.54,12.41-8.79,13.49-26.06,8.07-59.59-2.19-13.51-6.45-21Q454.36,65,437.63,65a96.48,96.48,0,0,0-15.25,1.37" fill="none"/></clipPath><clipPath id="clip-path-14"><rect x="413.37" y="69.1" width="48.58" height="35.48" fill="none"/></clipPath><clipPath id="clip-path-15"><path d="M321.07,95.81q-7.43,1.69-9.84,6.25-18.86,34.44,20.64,46.16,17.4,6.6,15.5,11.87-1.9,6.9-12.39,7-7.94-1-9.1-8a60,60,0,0,1-.72-7.51l-16.63.65q-1.63,14.2.36,21.77,3.81,12,23.38,12,19.05-1.41,29.53-7.67,5.81-3.13,5.52-21-.6-14.92-33.39-26.86-11.9-3.45-10.06-12.86c.24-1.56,1.56-2.76,3.95-3.58q2-1.08,9.66-1.1,7-.06,8.77,2.69,4.15,6-1.5,13.55l17.84,1.8A30.52,30.52,0,0,0,367,115.86q.36-8.7-6.56-17.38-3.27-3.87-19.9-4.4-12.28,0-19.44,1.73" fill="none"/></clipPath><clipPath id="clip-path-16"><path d="M486.93,95.67q-7.41,1.71-9.84,6.26-18.85,34.44,20.64,46.16,17.4,6.6,15.5,11.87-1.91,6.9-12.39,7c-5.29-.64-8.32-3.3-9.1-8a59.84,59.84,0,0,1-.72-7.5l-16.63.64q-1.62,14.22.37,21.78,3.8,12,23.37,12,19.06-1.43,29.53-7.68,5.82-3.12,5.52-21-.6-14.92-33.38-26.86-11.9-3.45-10.07-12.86c.25-1.57,1.57-2.76,4-3.59,1.32-.71,4.54-1.08,9.65-1.09,4.65,0,7.57.85,8.77,2.69q4.17,6-1.5,13.55l17.85,1.8a30.65,30.65,0,0,0,4.37-15.17q.38-8.72-6.56-17.38Q523,94.47,506.37,94q-12.28,0-19.44,1.72" fill="none"/></clipPath></defs><path d="M20.6,50Q-7.78,39.39,5.84,8.45q1.74-4.09,7.08-5.61a51.34,51.34,0,0,1,14-1.52q12,.51,14.3,4A27.17,27.17,0,0,1,45.89,21a32.89,32.89,0,0,1-3.17,13.63L29.89,33Q34,26.16,31,20.77q-1.29-2.49-6.3-2.44-5.52,0-6.94,1a4.12,4.12,0,0,0-2.85,3.22Q13.57,31,22.12,34.1q23.54,10.82,24,24.24.2,16-4,18.85Q34.53,82.8,20.83,84,6.76,84,4.05,73.19,2.63,66.38,3.82,53.6l12-.55a67,67,0,0,0,.51,6.76q.82,6.34,6.53,7.22c5-.06,8-2.17,8.92-6.3Q33.11,56,20.6,50" fill="#e95323"/><g clip-path="url(#clip-path)"><path d="M17.33-2.65S8.94,3.45,6.65,12.6,3.21,32.82,5.88,35.87s4.58,5.72,12.59,9.54,24,11.44,9.92,20.21h0s-3.05-7.25-9.16-10.68S.16,42.74.16,42.74s-7.24-24.8-7.62-26.32S2.45-8,17.33-2.65" fill="#d34d27"/><path d="M5.88,51.51S4,71.72,8.94,76.68s23.26,6.1,37.37-3.81L39.83,88.12,4.36,89.27S-5.94,78.21-6.32,77.06s5-24,5-24,4.57-3.81,7.24-1.52" fill="#d34d27"/><path d="M15.42,24.43s-1.91-5,1.14-6.87S31.44,13.75,33,19.09s0,11.44,0,11.44l13.35,1.91-3.81,6.1L23.05,29.77l-7.63-5.34" fill="#d34d27"/></g><path d="M94.9,68.45q-.5,11.64-14,15.13-8.1,1.69-22.81-1.93-7.3-1.71-8.82-12.32-2.4-19.59,1.42-66.68l16,1.2q-3.64,42.57-2.3,56c.49,4,1.77,6.5,3.86,7.36a8.57,8.57,0,0,0,5.84.41q4.23-.91,5.15-6.16Q81.61,46.38,76.83,8.4L92.51,6.28q3.63,35.28,2.39,62.17" fill="#e95323"/><g clip-path="url(#clip-path-2)"><path d="M53.56-.74s-3.81,53-2.67,65.22,10.3,16,17.54,16.78,23.27-1.53,27.08-8.39-8.77,14.49-8.77,14.49l-32.42.38-8-3.81-1.14-47.3,3-40Z" fill="#d34d27"/><path d="M79.11,3.45s2.29,18.69,3.06,27.08S88.27,72.1,71.1,67.91h0L72.25-.74Z" fill="#d34d27"/></g><path d="M132.43,55.84l-16.05,5.7V90.79L101.8,88.35,99.09,6.73h20.42q23.31,1.11,24,9.84.45,21-2.81,30.35-1.78,7.13-8.27,8.92m-16-32.78v24.6l7.73-2.49q4.72-1.23,5.56-12.5.78-6-2.39-7.41-3.41-1.92-10.9-2.2" fill="#e95323"/><g clip-path="url(#clip-path-3)"><polygon points="99.71 3.07 105.05 85.83 118.78 88.12 116.49 97.28 96.66 94.99 94.75 2.31 99.71 3.07" fill="#d34d27"/><path d="M117.25,26,116.87,21s14.11-2.29,15.26,4.19c1,5.75.15,17.46-7.93,20" fill="#d34d27"/></g><polygon points="149.25 80.54 147 4.31 189.99 6.05 188.98 20.45 163.05 21.73 163.05 30.61 181.99 31.8 181.99 46.43 163.05 47.02 163.05 63.12 188.84 63.12 188.43 77.79 149.25 80.54" fill="#e95323"/><g clip-path="url(#clip-path-4)"><polygon points="147.77 0.78 153.1 76.68 190.87 75.16 188.96 83.93 141.28 84.69 141.66 0.78 147.77 0.78" fill="#d34d27"/><path d="M191.25,18.33l-30.52.76.39,12.59,6.48-2.29,21.74-4.58s1.53-1.14,1.91-6.48" fill="#d34d27"/><polygon points="185.14 45.41 159.97 44.26 165.31 49.98 185.91 51.13 185.14 45.41" fill="#d34d27"/></g><path d="M212.11,54.89v29l-14.62-1.24L194.78.86q43.64-4,44.32,10.62.47,21-2.8,30.12-1.76,7-8.23,8.41l-1,.23,23.64,30.25-13.25,11Zm.09-38.72V38.38q12.6-1,13.2-12.32.82-6.68-2.35-8-3.39-1.93-10.85-1.89" fill="#e95323"/><g clip-path="url(#clip-path-5)"><path d="M211.84,12.6l.38,5.34,9.16,17.55s6.1-1.91,6.86-14.49c0,0-1.14-9.92-16.4-8.4" fill="#d34d27"/><polygon points="196.2 -2.65 200.4 79.35 215.27 82.4 215.27 87.74 192.77 86.98 192.01 -1.89 196.2 -2.65" fill="#d34d27"/><polygon points="211.84 50.36 212.6 57.23 237.4 96.89 243.5 90.03 211.84 50.36" fill="#d34d27"/><path d="M225.19,47.69l4.2,5.34s12.2-1.9,13-13.73,1.91-15.25,1.91-15.25l-.76-3.44s-6.1,28.61-18.31,27.08" fill="#d34d27"/></g><path d="M399.44,82.17s-14.17.71-11.33,21.25,12.75,51,24.08,52.41,32.58-1.41,36.13-9.91,2.83-50.29,2.83-50.29-17-38.25-51.71-13.46" fill="#fff"/><path d="M420.31,158.88s-.9,66,18.92,64c4.73-.47,15.39-4.09,15.39-4.09s9.39-9.7-20.69-65.13c0,0-13,8.08-13.62,5.21" fill="#5c5c5b"/><g clip-path="url(#clip-path-6)"><path d="M429.15,172s2.46,39.07,9.17,43.3,19.89-.8,19.4-15.9,4,35.65,3.79,37.61-31.71,16.27-34.77,15.17-23.09-30.82-26.27-34.7-1.83-33.45-2.89-34.75S429.15,172,429.15,172" fill="#444343"/><path d="M447.58,169.82l-5.2,2.67s13.47,33.8,11.63,40.36a19.82,19.82,0,0,0,3.6-8.36c.9-5.06-10-34.67-10-34.67" fill="#9f9f9e"/></g><path d="M445.87,166.9a4.66,4.66,0,0,1-3.49,5.59l-20,4.64a4.66,4.66,0,1,1-2.11-9.07l20-4.64a4.65,4.65,0,0,1,5.6,3.48" fill="#b4b3b3"/><g clip-path="url(#clip-path-7)"><path d="M413.46,170.39s23.81,3.56,36.19-9.48-33.69-3.74-36.19,9.48" fill="#9f9f9e"/><path d="M413.58,173.18s-1.6,8.16,5.53,8.07,30.59-8.84,30.59-8.84l.9-5.06s-3.25.86-9,3.06-24.55,7.87-28,2.77" fill="#8a8a89"/></g><path d="M408.44,122.77a4.49,4.49,0,0,0,.71,1.71c.11.19.93,1.73,1,1.94a5.26,5.26,0,0,0,1.76,2.4c.42.37.9.65,1.33,1.09a11.24,11.24,0,0,0,1,1,13.28,13.28,0,0,0,2.34,1.44,12.07,12.07,0,0,0,2.11.53c.69.18,1.3.38,2,.49a8.92,8.92,0,0,0,3.5.09c.35-.05,3.78-.82,3.71-.81.62-.24,1.08-.53,1.62-.76a10.93,10.93,0,0,0,2.31-1c.32-.27.62-.61.95-.88s.83-.64,1.2-1.07.68-1.19,1.1-1.77c.3-.41.6-.75.9-1.16a5.63,5.63,0,0,0,.69-1.12c.21-.54.8-2.74.9-3s.29-2.73.43-3.19a7.37,7.37,0,0,0,0-2.46c0-.28-.3-1.4-.34-1.68s-.09-1-.12-1.22l-.3-1.84a3.54,3.54,0,0,0-.2-.84c-.27-.75-.69-1.56-1-2.3-.23-.54-.47-1.09-.71-1.7a14.33,14.33,0,0,0-3.26-4c-.34-.31-1.6-1.42-1.78-1.61s-.69-.25-1-.42a8.31,8.31,0,0,0-.82-.59,2.54,2.54,0,0,0-.68-.18c-.46-.15-.8-.46-1.19-.61a23.13,23.13,0,0,0-3-.32,16.51,16.51,0,0,0-3.3.24,16.3,16.3,0,0,0-1.68.41l-1,.16a4.69,4.69,0,0,0-1.32.35c-.69.26-1.32.87-2,1.19s-1.14.55-1.74.93a12.14,12.14,0,0,0-2.17,2.31,7.12,7.12,0,0,0-1,1.68c-.16.39-.46.8-.61,1.18s-1,3.14-1.1,3.59c-.08.88,0,1.67,0,2.47a15.28,15.28,0,0,0-.15,1.77,8.69,8.69,0,0,0,.22,1.85l.11.71a12.83,12.83,0,0,0,0,2.32c0,.21.46,1.52.51,1.8Z" fill="#2b2b2a"/><path d="M418,112.09a2.25,2.25,0,0,0,.36.88c.06.1.48.89.53,1a2.76,2.76,0,0,0,.91,1.23,8.66,8.66,0,0,1,.69.57c.18.15.28.36.49.52a8.21,8.21,0,0,0,1.21.74,5.6,5.6,0,0,0,1.09.27,9.3,9.3,0,0,0,1,.25,4.48,4.48,0,0,0,1.8,0l1.91-.42c.32-.12.56-.27.84-.39a4.82,4.82,0,0,0,1.19-.53c.16-.14.32-.31.48-.45s.44-.33.63-.55.34-.61.56-.91.31-.38.47-.6a3.08,3.08,0,0,0,.35-.58c.11-.28.41-1.41.46-1.57s.15-1.4.23-1.64a4.14,4.14,0,0,0,0-1.27c0-.14-.15-.72-.17-.86s-.05-.52-.07-.63l-.15-1a2.23,2.23,0,0,0-.1-.43c-.14-.39-.36-.8-.53-1.19s-.24-.56-.36-.87a7.43,7.43,0,0,0-1.68-2.09l-.92-.82c-.16-.09-.36-.14-.52-.22a5.1,5.1,0,0,0-.42-.31,1.58,1.58,0,0,0-.36-.09c-.23-.08-.41-.24-.61-.31a11.74,11.74,0,0,0-1.55-.17,8.73,8.73,0,0,0-1.7.13,6.42,6.42,0,0,0-.87.21l-.51.08a2.08,2.08,0,0,0-.68.18c-.35.13-.68.45-1,.61s-.59.29-.9.48a6.29,6.29,0,0,0-1.12,1.19,3.3,3.3,0,0,0-.49.87c-.08.2-.24.41-.32.61s-.52,1.61-.56,1.84c0,.46,0,.86,0,1.28a7,7,0,0,0-.08.91,3.93,3.93,0,0,0,.12,1l.05.36a6.87,6.87,0,0,0,0,1.2c0,.11.24.78.27.93Z" fill="#fff"/><path d="M64,170.07q-12.69,14.3-24.46,15.8-10.17,1.09-15.73-.58-15.49-2.67-19.36-17-6.66-32.55-3.38-53.2Q3.42,102.34,18.38,98q14.11-4.07,26.15-2.25,16,2.71,16.41,15.55.21,5.88-.1,13l-18.93,1.78q-.25-3.06-.78-6.08c-.69-3.3-2.84-5-6.47-5.2a15.16,15.16,0,0,0-8.37,1.2q-4.17,1.49-5.23,8.23-1.89,15,2.45,38.48,1.93,6.95,11.14,5.09,6-1.18,15.9-10.51Z" fill="#e95323"/><g clip-path="url(#clip-path-8)"><path d="M9.55,95.8C9.16,97,2.12,109.91,2.92,121.65s1.21,50.12,10.61,55.21,36.82,10.54,49.33-13.75,7.07,20.75,5.11,26.63-38.35,35.66-43,36.06S-13.48,191-13.48,191s1.13-56,1.52-58.35S-1.81,88-1.81,88Z" fill="#d34d27"/><path d="M62.83,120.82l-18,2s-3.15-14.09-13.72-11-11,8.23-10.56,18,13.33,17.61,14.51,17.61,24.27-7.85,24.27-7.85Z" fill="#d34d27"/></g><path d="M131.55,170.68q-.68,12.93-19.47,16.86-11.25,1.92-31.73-2.08Q70.18,183.6,68,171.8c-2.25-14.51-1.68-43.86,1.79-78.76L92,94.32c-3.3,31.56-4.28,57-3,66.9.69,4.49,2.49,7.22,5.39,8.16a14.86,14.86,0,0,0,8.12.45,8.22,8.22,0,0,0,7.15-6.87q3.36-16.77-3.39-59l21.81-2.39q5.13,39.18,3.47,69.08" fill="#e95323"/><g clip-path="url(#clip-path-9)"><path d="M73,80.09s-3.1,50.52-3.08,70.48,2.76,30.55,16.47,32.1,36,4.67,45-7.47-13.68,32.51-13.68,32.51-34.06,7.07-36.41,7.08S57.8,203.84,55.84,203.45s-1.6-42.29-2.38-43.85S60.83,75,60.83,75Z" fill="#e95323"/><path d="M73.76,80.09s-5.43,64.62-3.46,81.84,10.2,20.75,20.77,21.52,30.55,1.94,38.37-6.68S122.8,205,122.8,205s-34.44,12.17-37.58,12.17-21.93-6.24-23.89-8.2-5.51-33.28-6.29-36.8,3.84-90.07,3.84-90.07,12.13-8.23,14.88-2" fill="#d34d27"/><path d="M95.76,168.57C129.84,182.64,109,99.25,109,99.25L101.19,102l-5.43,66.57" fill="#d34d27"/></g><path d="M161.45,154l.08,32.25-20.35-1.33-4-90.91q60.67-4.59,61.68,11.66.69,23.31-3.83,33.49-2.42,7.83-11.42,9.37l-1.35.27,20.28,28.62-13.09,10.46Zm0-43,0,24.69q17.52-1.17,18.33-13.74,1.13-7.41-3.28-8.88-4.76-2.14-15.1-2.07" fill="#e95323"/><g clip-path="url(#clip-path-10)"><path d="M138.38,90.61l5.94,91.63,19.19,1.55-.38,11.74s-18.79,7.07-20,6.29-7.84-5.48-8.23-6.65-4.4-109.25-4.4-109.25Z" fill="#d34d27"/><polygon points="162.32 158.34 161.53 151.29 192.89 186.9 190.54 196.69 162.32 158.34" fill="#d34d27"/><path d="M185.81,152.05s10.18-5.88,11.35-11.36l1.16-5.49s-7,12.54-18,11Z" fill="#d34d27"/><path d="M163,113.3,160,107.57s15.64-1.52,19.45,2.29,5.72,18.31-6.48,22.89h0Z" fill="#d34d27"/></g><path d="M207.35,111.7l-2.23-22.89,22.13.66-1.67,22.85Zm2.21,75.38-4.05-67.46,22.12-2.09.15,65.41Z" fill="#e95323"/><g clip-path="url(#clip-path-11)"><polygon points="206.12 85.08 209.66 109.35 223.76 110.12 226.9 114.04 206.14 115.62 201.42 88.6 206.12 85.08" fill="#d34d27"/><polygon points="207.32 118.36 212.85 184.14 229.3 179.43 231.66 191.17 201.51 197.07 202.62 118.75 207.32 118.36" fill="#d34d27"/></g><path d="M300.39,104.39q-4.18-12.06-25.93-12Q249.9,93.76,238.28,100q-6.47,3.18-6.16,18.66,0,14.31,5.71,40.11,4.53,19.72,7.79,22.93,4.56,4.7,18.56,4.45,11.7-.74,16.12-1.77,6.7-1.95,9.83-6.25,12.54-22,12.48-53.54,0-12.72-2.22-20.23m-22.9,58.15a7.49,7.49,0,0,1-3.95,3.64,35.3,35.3,0,0,1-6.33,1q-5.62.06-7.43-2.64-1.27-1.89-4.19-16.35-4.92-29.37-1.29-32.24,5.49-4.56,16.94-3.72,8.83.95,10.32,7a67,67,0,0,1,.85,11.81q0,18.54-4.92,31.43" fill="#e95323"/><g clip-path="url(#clip-path-12)"><path d="M244.5,93.27S231.58,94.84,230,107s-.34,59.13,9.85,76.74S287.65,190,287.65,190l5.87-4.32,3.9-12.53s-7.43,7.06-23.48,8.24-25.45,4.33-29.77-9-19.25-73.21.33-79.1" fill="#d34d27"/><path d="M256.66,118.71s2.77,36.81,7.47,40.72,10.57,1.17,12.92-1.58" fill="#d34d27"/><path d="M253.53,121.46s-2.36-7.44-1.58-8.23,19.19-6.67,27.8-2.76,7.5,57-6.21,55.71-20-44.72-20-44.72" fill="#d34d27"/></g><path d="M459.89,73.51q-7.75-11.9-37.51-7.11-33.37,6.81-48.23,16-8.31,4.78-5.29,21.17,2.44,15.19,14.58,41.36,9.49,20,14.52,22.67,7,4,26.15.7,15.9-3.34,21.75-5.39,8.86-3.54,12.41-8.79,13.49-26.06,8.07-59.59-2.19-13.51-6.45-21m-21.54,66.77a10,10,0,0,1-4.8,4.72,61.37,61.37,0,0,1-8.49,2.48q-7.69,1.29-10.61-1.19-2.07-1.72-8.49-16.45-11.7-30.14-7.19-34,6.74-6,22.56-7.64,12.24-.9,15.3,5.23a56.52,56.52,0,0,1,3.16,12.36q3.18,19.69-1.44,34.47" fill="#00a5a8"/><g clip-path="url(#clip-path-13)"><path d="M399.91,98.76S395,97.4,398.27,93,419.88,80.57,437,85c0,0,3.86,4,5,13.49s8.64,51.88-15.59,47.88-26.53-47.59-26.53-47.59" fill="#3f757c"/><path d="M366,87.74s-1.52,26.33,11.56,56.76,37.66,41.16,55.79,36.13A267.09,267.09,0,0,0,466.5,168.9L469.59,157s.78-10.84.3-9.34-27.09,16.12-47.58,17.6-29.49-5.65-40.14-34.33-16.43-40.26-13.82-48.54Z" fill="#3f757c"/><g opacity="0.4"><g clip-path="url(#clip-path-14)"><path d="M451.22,70.92c5.37,3.26,10.46,14,10.73,33.67,0,0-3.78-23.7-11.17-29.67s-32.18-2.37-37.41-1.53c0,0,29.25-7.69,37.85-2.47" fill="#fff"/></g></g></g><path d="M331.86,148.22q-39.48-11.72-20.63-46.16,2.41-4.55,9.84-6.25,7.15-1.71,19.44-1.73,16.62.53,19.9,4.4,6.91,8.67,6.56,17.38A30.52,30.52,0,0,1,362.59,131l-17.85-1.8c3.79-5,4.28-9.57,1.51-13.55q-1.8-2.75-8.77-2.69-7.68,0-9.66,1.1c-2.39.82-3.71,2-4,3.58q-1.83,9.42,10.07,12.86,32.77,11.94,33.39,26.86.29,17.84-5.52,21-10.49,6.25-29.53,7.67-19.57.06-23.38-12-2-7.56-.36-21.78l16.63-.64a60,60,0,0,0,.72,7.51q1.15,7,9.1,8,10.49-.12,12.39-7,1.9-5.26-15.51-11.87" fill="#e95323"/><g clip-path="url(#clip-path-15)"><path d="M324.38,92s-7.83,2.75-11.35,14.5-5.46,20.36-.76,25.84,6.27,6.66,14.89,11,20.76,7.81,21.94,11.73-3.91,14.88-12.92,9-7.05-10.17-7.05-10.17-14.89-9-16.46-9.39-17.24-15.65-7.47-38S324.38,92,324.38,92" fill="#d34d27"/><path d="M311.11,150.78s-2.33,18,.41,23.89,25.86,16.42,58.35-2.79S357,207.13,357,207.13s-29.75,6.68-31.32,6.29-15.67-9-15.67-9l-11-21.92,5.46-31.73,6.65-1.57Z" fill="#d34d27"/><path d="M325.18,121s-2.35-4.7.78-7.44,10.57-3.93,16.44-3.15,10.19,3.91,8.63,9.39l-1.56,5.49,16.45,3.11-2.74,7.45-21.93-5.47Z" fill="#d34d27"/></g><path d="M497.73,148.09q-39.5-11.73-20.64-46.16c1.62-3,4.89-5.12,9.84-6.26q7.15-1.69,19.44-1.73,16.64.53,19.9,4.41,6.93,8.67,6.56,17.38a30.56,30.56,0,0,1-4.38,15.17l-17.84-1.8q5.67-7.57,1.5-13.55c-1.2-1.84-4.12-2.73-8.77-2.69-5.12,0-8.33.38-9.65,1.09-2.39.83-3.71,2-4,3.59q-1.83,9.4,10.07,12.86,32.77,11.94,33.38,26.86.3,17.84-5.52,21-10.47,6.25-29.53,7.68-19.56,0-23.37-12-2-7.58-.37-21.78l16.63-.64a59.84,59.84,0,0,0,.72,7.5c.78,4.71,3.81,7.37,9.1,8q10.49-.12,12.39-7,1.9-5.27-15.5-11.87" fill="#e95323"/><g clip-path="url(#clip-path-16)"><path d="M490.24,91.9s-7.83,2.75-11.34,14.5-5.47,20.36-.76,25.84,6.27,6.65,14.88,10.95S513.79,151,515,154.92s-3.9,14.89-12.91,9S495,153.76,495,153.76s-14.89-9-16.45-9.38-17.24-15.65-7.47-38,19.17-14.5,19.17-14.5" fill="#d34d27"/><path d="M477,150.65s-2.34,18,.41,23.88,25.85,16.43,58.34-2.78S522.83,207,522.83,207s-29.75,6.68-31.32,6.29-15.67-9-15.67-9l-11-21.92,5.46-31.72,6.65-1.57Z" fill="#d34d27"/><path d="M491.05,120.87s-2.35-4.69.78-7.44,10.57-3.92,16.44-3.14,10.19,3.91,8.62,9.39l-1.56,5.48,16.45,3.12L529,135.73l-21.93-5.47Z" fill="#d34d27"/></g></svg>