<?xml version="1.0" encoding="UTF-8"?><svg xmlns="http://www.w3.org/2000/svg" xmlns:xlink="http://www.w3.org/1999/xlink" viewBox="0 0 411.29 63.44"><defs><style>.g{letter-spacing:.1em;}.h{fill:#e63551;}.i{fill:#fff;}.j{letter-spacing:.08em;}.k{filter:url(#e);}.l{letter-spacing:.07em;}.m{letter-spacing:0em;}.n{letter-spacing:.06em;}.o{fill:#309fa2;font-family:Formata-BoldCondensed, Formata Condensed;font-size:53.62px;}</style><filter id="e" filterUnits="userSpaceOnUse"><feOffset dx="3.67" dy="3.67"/><feGaussianBlur result="f" stdDeviation="2.44"/><feFlood flood-color="#bb1640" flood-opacity=".3"/><feComposite in2="f" operator="in"/><feComposite in="SourceGraphic"/></filter></defs><g id="a"/><g id="b"/><g id="c"/><g id="d"><text transform="translate(.05 48.84) rotate(.2)" fill="#309fa2" font-family="Formata-BoldCondensed, Formata Condensed" font-size="53.62"><tspan x="0" y="0" letter-spacing=".06em">M</tspan><tspan x="46.75" y="0" letter-spacing="0em">A</tspan><tspan x="80.16" y="0" letter-spacing=".07em">T</tspan><tspan x="110.72" y="0" letter-spacing=".1em">E</tspan><tspan x="141.87" y="0" letter-spacing=".06em">MÁ</tspan><tspan x="225.34" y="0" letter-spacing=".07em">T</tspan><tspan x="255.9" y="0" letter-spacing=".08em">I</tspan><tspan x="275.9" y="0" letter-spacing=".07em">C</tspan><tspan x="308.72" y="0" letter-spacing=".06em">A</tspan></text><g><path d="M411.29,30.98c0,13.56-11.02,24.54-24.62,24.54s-24.62-10.99-24.62-24.54,11.02-24.54,24.62-24.54,24.62,10.99,24.62,24.54Z" fill="#e63551"/><path d="M386.67,53.75c-.51,0-1.02-.02-1.52-.05l.02-.3c.71,.05,1.44,.06,2.16,.04v.3c-.21,0-.43,0-.66,0Zm1.88-.08l-.02-.3c.5-.04,1-.1,1.49-.17l.04,.3c-.5,.07-1.01,.13-1.51,.17Zm-4.61-.09c-.5-.06-1.01-.14-1.5-.23l.06-.3c.49,.09,.99,.17,1.48,.23l-.04,.3Zm7.32-.3l-.06-.3c.49-.1,.98-.22,1.46-.35l.08,.29c-.49,.13-.98,.25-1.48,.35Zm-10.02-.19c-.49-.12-.98-.26-1.46-.41l.09-.29c.48,.15,.96,.29,1.45,.41l-.07,.29Zm12.66-.52l-.1-.29c.47-.16,.95-.33,1.41-.52l.12,.28c-.47,.19-.95,.37-1.43,.53Zm-15.28-.29c-.47-.18-.95-.38-1.41-.59l.13-.28c.45,.21,.92,.4,1.39,.58l-.11,.28Zm17.81-.73l-.13-.27c.45-.21,.9-.44,1.33-.69l.15,.26c-.44,.25-.9,.48-1.35,.7Zm-20.31-.39c-.45-.23-.89-.49-1.33-.75l.16-.26c.43,.26,.87,.51,1.31,.74l-.14,.27Zm22.71-.93l-.16-.26c.42-.27,.84-.55,1.24-.84l.18,.24c-.41,.3-.83,.59-1.26,.86Zm-25.05-.48c-.42-.29-.83-.59-1.23-.9l.19-.24c.39,.31,.8,.61,1.21,.89l-.17,.25Zm27.27-1.12l-.19-.23c.39-.32,.77-.65,1.13-.99l.21,.22c-.37,.34-.75,.68-1.15,1Zm-29.43-.57c-.38-.33-.75-.69-1.11-1.04l.21-.21c.35,.35,.72,.7,1.09,1.03l-.2,.23Zm31.45-1.29l-.22-.21c.34-.36,.68-.73,1.01-1.12l.23,.2c-.33,.39-.67,.77-1.02,1.13Zm-33.39-.64c-.34-.38-.66-.77-.98-1.17l.24-.19c.31,.39,.63,.78,.96,1.15l-.23,.2Zm35.17-1.44l-.24-.18c.3-.4,.59-.81,.87-1.23l.25,.17c-.28,.42-.57,.84-.88,1.24Zm-36.87-.71c-.29-.41-.57-.84-.83-1.28l.26-.16c.26,.43,.53,.85,.82,1.26l-.25,.17Zm38.39-1.57l-.26-.15c.25-.43,.49-.88,.71-1.32l.27,.13c-.23,.45-.47,.9-.72,1.34Zm-39.81-.76c-.24-.44-.46-.9-.67-1.36l.28-.12c.2,.46,.43,.91,.66,1.35l-.27,.14Zm41.05-1.69l-.28-.12c.2-.46,.38-.93,.55-1.4l.29,.1c-.17,.48-.35,.95-.55,1.42Zm-42.18-.8c-.18-.47-.35-.95-.5-1.44l.29-.09c.15,.48,.31,.95,.49,1.42l-.28,.11Zm43.11-1.78l-.29-.08c.14-.48,.27-.97,.37-1.45l.3,.07c-.11,.49-.24,.99-.38,1.47Zm-43.94-.83c-.12-.49-.23-.99-.32-1.49l.3-.05c.09,.49,.2,.98,.32,1.47l-.29,.07Zm44.55-1.84l-.3-.05c.08-.49,.15-.99,.19-1.49l.3,.03c-.05,.5-.12,1.01-.2,1.51Zm-45.06-.85c-.06-.5-.11-1.01-.14-1.51l.3-.02c.03,.5,.08,1,.14,1.49l-.3,.04Zm45.34-1.87h-.3c.01-.35,.02-.69,.02-1.03,0-.16,0-.33,0-.49h.3c0,.16,0,.32,0,.49,0,.34,0,.68-.02,1.03Zm-45.52-.86v-.17c0-.45,.01-.91,.04-1.36l.3,.02c-.03,.44-.04,.89-.04,1.34v.16h-.3Zm45.18-1.85c-.04-.5-.09-1-.16-1.49l.3-.04c.07,.5,.13,1.01,.16,1.51l-.3,.02Zm-44.74-.84l-.3-.03c.06-.5,.13-1.01,.22-1.51l.3,.05c-.09,.49-.16,.99-.22,1.49Zm44.38-1.83c-.1-.49-.21-.98-.34-1.46l.29-.08c.13,.49,.25,.98,.34,1.48l-.3,.06Zm-43.92-.83l-.29-.07c.12-.49,.25-.99,.4-1.47l.29,.09c-.15,.48-.28,.96-.4,1.45Zm43.23-1.79c-.15-.48-.33-.95-.51-1.41l.28-.11c.19,.47,.36,.95,.52,1.43l-.29,.09Zm-42.45-.8l-.28-.11c.18-.47,.37-.95,.58-1.41l.28,.12c-.2,.46-.4,.92-.57,1.39Zm41.46-1.71c-.21-.45-.44-.9-.68-1.34l.27-.15c.25,.44,.48,.9,.69,1.35l-.27,.13Zm-40.37-.77l-.27-.14c.23-.45,.48-.9,.74-1.33l.26,.16c-.26,.43-.5,.87-.73,1.31Zm39.09-1.6c-.26-.42-.54-.84-.84-1.25l.25-.18c.3,.41,.58,.84,.85,1.26l-.26,.16Zm-37.71-.72l-.25-.17c.28-.42,.58-.83,.9-1.23l.24,.19c-.31,.39-.6,.8-.88,1.22Zm36.15-1.48c-.31-.39-.64-.77-.98-1.14l.22-.2c.34,.37,.68,.76,.99,1.15l-.24,.19Zm-34.5-.66l-.23-.2c.33-.38,.68-.76,1.04-1.12l.21,.21c-.35,.35-.7,.72-1.02,1.1Zm32.68-1.34c-.36-.35-.73-.69-1.11-1.01l.2-.23c.38,.33,.76,.67,1.12,1.03l-.21,.22Zm-30.79-.59l-.2-.22c.38-.34,.77-.67,1.16-.98l.19,.24c-.39,.31-.78,.63-1.15,.97Zm28.75-1.18c-.4-.31-.81-.6-1.22-.87l.17-.25c.42,.28,.84,.58,1.24,.89l-.18,.24Zm-26.65-.51l-.18-.25c.41-.29,.84-.57,1.27-.84l.16,.26c-.42,.26-.85,.54-1.25,.83Zm24.41-1c-.43-.25-.87-.5-1.32-.72l.14-.27c.45,.23,.9,.47,1.34,.73l-.15,.26Zm-22.12-.42l-.14-.27c.44-.24,.9-.47,1.36-.68l.13,.27c-.45,.21-.9,.43-1.34,.67Zm19.71-.81c-.46-.2-.93-.39-1.4-.56l.1-.28c.48,.17,.95,.36,1.42,.57l-.12,.28Zm-17.27-.33l-.11-.28c.47-.18,.95-.36,1.43-.51l.09,.29c-.48,.15-.95,.32-1.41,.5Zm14.73-.61c-.48-.14-.96-.27-1.45-.38l.07-.29c.49,.11,.99,.24,1.47,.39l-.09,.29Zm-12.16-.23l-.08-.29c.49-.13,.99-.24,1.48-.33l.06,.3c-.49,.09-.98,.2-1.46,.33Zm9.53-.39c-.49-.08-.99-.15-1.49-.21l.03-.3c.5,.05,1.01,.12,1.51,.21l-.05,.3Zm-6.88-.13l-.04-.3c.5-.07,1.01-.12,1.51-.15l.02,.3c-.5,.03-1,.08-1.49,.15Zm4.19-.17c-.5-.03-1-.03-1.5-.03v-.3c.5,0,1.01,0,1.52,.03l-.02,.3Z" fill="#fff"/><g filter="#e"><path d="M390.76,27.34c3.4,.57,5.64,3.54,5.64,8.22,0,6.17-3.92,11.24-11.76,11.24-2.63,0-5.26-.53-7.7-1.48l-.29-.48c.05-.96,.1-1.96,.1-2.96,.05-1.29,.05-2.63,.1-3.92l.33-.24c.96,.81,2.77,2.3,5.31,2.3,1.67,0,4.4-.72,4.4-4.69,0-1.05-.29-3.78-3.49-3.78-1.29,0-1.96,.33-2.58,.57l-.29-.33,2.53-5.07c1.48-3.01,1.48-3.06,2.01-4.21-1.91,.05-4.26,.1-8.13,.24l-.33-.29c.24-3.49,.24-4.02,.33-6.89l.33-.29c4.11,.1,4.59,.1,6.6,.1h4.88c1.48,0,2.92-.05,4.35-.1,.24,0,3.25-.14,3.35-.14l.29,.33c-1.48,2.63-1.77,3.25-4.59,8.94l-1.39,2.92Z" fill="#fff"/></g></g></g></svg>